<?xml version="1.0" encoding="utf-8"?>
<!-- Generator: Adobe Illustrator 25.1.0, SVG Export Plug-In . SVG Version: 6.00 Build 0)  -->
<svg version="1.1" id="Layer_1" xmlns="http://www.w3.org/2000/svg" xmlns:xlink="http://www.w3.org/1999/xlink" x="0px" y="0px"
	 viewBox="0 0 350 612" style="enable-background:new 0 0 350 612;" xml:space="preserve">
<style type="text/css">
	.st0{fill:#F6E2CE;}
	.st1{fill:#414042;}
</style>
<rect x="-134.36" y="127.64" transform="matrix(-1.836970e-16 1 -1 -1.836970e-16 477.6425 128.4688)" class="st0" width="617.89" height="350.83"/>
<path class="st1" d="M31.34,610.11c0,0,37.87-116.6,11.99-193.67c0,0-22.3-46.02-57.02-55.4c0,0-32.82-3.13-42.5-6.25
	c0,0-14.52-3.13-29.03,20.77s-24.62,6.25-24.62,6.25s7.57,10.5,17.04-0.45c0,0,12.62-23.23,28.4-29.49c0,0-18.3-5.36-27.98-22.11
	c0,0-30.09,14.3-46.92,0c0,0-7.78-8.94-7.99-16.31c0,0,7.57,18.99,18.51,19.21c0,0,18.51,3.35,33.66-6.92c0,0-7.15-7.37-7.15-35.07
	c0,0,1.26,25.24,9.26,33.95c0,0,25.04-13.85,40.82-14.52c0,0-12.83-6.92-15.15-27.25c0,0-1.05-20.77-14.73-18.32
	c0,0,11.82-4.86,16.41,15.86c0,0,0.21,24.57,24.2,28.15c0,0,23.98,0.45,31.56,7.37c0,0-17.46-29.04-20.83-34.18
	c0,0,0.42-3.35-13.04-10.28c0,0-27.98-13.4-31.77-20.33c0,0-7.15-6.92-6.1-28.15c0,0-2.52,25.69,18.3,34.62
	c0,0,21.25,8.04,26.09,11.62c0,0-14.94-28.15-15.78-39.76c0,0-15.99-15.19-21.04-17.2c0,0-16.83-1.34-43.55,3.57
	c0,0-21.67,2.23-30.93-6.03c0,0-11.99-10.5-15.57-21.89c0,0,9.49,17.9,22.93,23.01c0,0,11.15,3.8,25.25,0.22
	c0,0,21.88-6.48,31.77-5.14c0,0-4.63-6.25-8.63-7.59c0,0-10.52-8.49-15.57-15.41c0,0,0-5.58-15.36-6.7c0,0-25.04-0.45-34.5-7.59
	c0,0-14.01-8.04-7.11-21.67c0,0-3.2,12.06,5.43,17.87c0,0,8.63,8.26,23.98,6.7c0,0,16.62-0.67,21.04,2.01
	c0,0-22.72-30.38-8.42-87.34c0,0-12.41,57.85,16.62,90.02c0,0,15.57,8.71,24.2,19.66c0,0,22.33,14.07,25.05,17.65
	c0,0-3.14-28.15,0-36.63c0,0-8.85-12.51-20.21-27.03c0,0-16.2-18.09-0.63-42.44c0,0-8.79,14.15-3.16,29.49c0,0-0.42,4.47,7.99,12.51
	c0,0,14.12,14.74,16,19.66c0,0,6.72-37.3,8.82-41.1c0,0-6.52-11.39-6.73-17.2c0,0-16.62-14.97-20.62-24.57c0,0-3.37-9.16,2.74-16.53
	c0,0-5.05,12.51,0,18.54c0,0,12.02,14.07,15.79,15.41c0,0-4.22-17.42,8.4-33.95c0,0-6.94-31.5-63.54-57.85
	c0,0,48.18,14.52,66.06,51.82c0,0,10.31-10.72,4.42-26.36c0,0-2.1-7.37-14.31-12.51c0,0,22.3,5.36,17.67,28.37
	c0,0-0.84,8.49-5.26,14.74c0,0,9.89,11.84,7.36,45.79c0,0,9.68-32.84,25.88-38.64c0,0-5.68-3.13-3.16-13.4c0,0-1.28,9.77,4.13,12.66
	c0,0,11.28-4.73,25.05-3.64c0,0-20.32,1.47-22.17,5.44c0,0,0.75,3.43,17.95,3.69c0,0,18.94-0.17,25.56,11.48
	c0,0-4.87-21.7,0.6-46.27c0,0,3.1-28.87-8.1-39.26c0,0-4.26-10.05-20.67-7.71c0,0,25.88-12.56,32.51,35.18
	c0,0,12.26-37.47,50.55-59.7c0,0-48.02,34.57-50.7,77.62c0,0-1.74,13.57,3.79,36.52c0,0,6.94,28.82,8.68,37.69
	c0,0,10.41-9.72,10.73-22.78c0,0,0.47-5.36-0.95-25.97c0,0-1.42-23.29,17.99-22.28c0,0-17.36-1.01-15.62,19.94
	c0,0,5.05,29.49,0.16,41.55c0,0-5.37,13.4-10.26,19.43c0,0,3.63,13.07,2.84,34.18c0,0,20.99-23.12,35.35-33.34
	c0,0,21.93-18.43,20.67-54.78c0,0-3-40.04-9.15-49.42c0,0-4.42-14.74-21.14-11.06c0,0,15.31-8.88,25.41,14.74
	c0,0-1.26-38.7,28.4-37.36c0,0-28.25,0.34-24.62,42.89c0,0,3.16,16.75,4.73,27.81c0,0,3.63-10.39,14.67-21.28
	c0,0,12.31-13.07,25.88-0.67c0,0-12.52-9-24.93,3.18c0,0-10.89,12.23-14.04,26.14c0,0,2.84,23.29-3.47,40.71
	c0,0,56.18-35.01,62.91-74.33c0,0,1.47-8.71,0-16.08c0,0-11.99-35.29-2.31-53.05c0,0-7.15-15.97-25.88-35.18
	c0,0,24.2,24.57,27.98,31.27c0,0,8.31-11.95,21.57-14.13c0,0-17.99,7.37-20.04,16.25c0,0,14.52,19.27,14.83,45.4
	c0,0,6.79-25.13,13.25-30.99c0,0,8.52-8.88,21.46-5.53c0,0-18.3-1.51-23.35,12.9c0,0-3,7.54-4.58,14.07c0,0-3.16,11.73-7.73,23.45
	c0,0-1.58,13.4-6.15,21.78c0,0,15.15-11.73,35.35-4.52c0,0,19.57,12.73,28.88,4.52c0,0,4.89-3.52,4.42-6.37
	c0,0,0.63,15.58-22.88,9.05c0,0-18.3-10.55-29.35-4.86c0,0-15.78,6.03-26.35,23.29c0,0-21.46,31.83-41.97,46.57
	c0,0,12.78,14.24,42.45,9.21c0,0,13.73-0.67,30.61-22.62c0,0,13.41-16.42,29.35-12.23c0,0,6.15,3.85,8.21,8.38
	c0,0-8.84-11.06-17.36-7.2c0,0-8.68,1.68-20.04,15.75c0,0-8.36,10.72-15.78,15.58c0,0,29.67-5.7,32.51,20.94
	c0,0-3.47-16.08-15.78-16.92c0,0-12.78-3.18-23.2,1.51c0,0-14.83,8.38-35.66,5.36c0,0-14.99-2.35-25.41-8.54
	c0,0-7.89,6.37-24.62,20.44c0,0-56.02,40.38-54.33,99.79c0,0,11.99-17.42,18.3-23.23c0,0,6.31-4.24,15.78-24.35
	c0,0,10.94-34.18,41.24-29.26c0,0-26.51-3.8-34.5,23.23c0,0-4.42,11.39-7.15,16.75c0,0,22.09-16.75,51.34-14.97
	c0,0,19.36-24.57,35.98-17.2c0,0,5.68,4.47,6.31,6.7c0,0-9.47-11.39-21.04-4.24c0,0-10.31,5.36-16.2,15.19c0,0,17.04,3.35,32.4,6.92
	c0,0,27.77,7.37,38.08-5.81c0,0,8.63-8.49,7.57-18.09c0,0,2.52,26.58-26.72,28.82c0,0-17.67,2.23-35.56-3.13
	c0,0-11.36-3.57-21.67-2.68c0,0-7.57,12.96-25.46,16.53c0,0-7.57,8.49-1.47,18.32c0,0,2.31,9.38,16.2,21.22
	c0,0,11.36,10.95,13.04,16.53c0,0,0.42-18.32,9.05-28.82c0,0,7.15-8.94,19.15-6.03c0,0-17.25-0.67-21.67,14.74
	c0,0-4.42,9.38-1.89,30.38c0,0,5.47,13.85,1.68,35.07c0,0,19.15-18.32,43.76-20.77c0,0,27.56-9.83,28.4-29.93
	c0,0-1.05-24.79,2.95-30.6c0,0,4.63-9.61,13.04-7.15c0,0-12.52-1.68-13.31,17.42l-0.16,20.94c0,0-0.47,16.92-14.99,27.98
	c0,0,27.77,5.19,36.77,8.38c0,0,2.84,1.17,6.79-0.34c0,0,27.93-12.9,44.02-2.35c0,0,13.41-8.38,15.78-39.54
	c0,0-0.16,32.84-13.1,41.55c0,0,6.79,6.2,6.79,15.08c0,0-3.31-11.73-8.68-14.07c0,0-13.89,15.75-49.71,8.38
	c0,0-35.03-10.55-48.6-5.86c0,0-25.56,1.06-56.28,48.42c0,0,18.09-10.05,49.86,7.82c0,0,19.57,12.51,30.09,4.02
	c0,0,11.99-9.83,11.36-15.86c0,0-0.63,14.97-13.89,19.66c0,0-10.1,4.02-25.25-1.79c0,0-19.78-9.83-25.25-10.05
	c0,0-15.15-4.02-35.77,11.62c0,0-16.62,31.72-31.77,81.98c0,0,4.42,8.94,4.21,74.38c0,0,0.84,13.4,0.42,78.18
	C97.19,610.11,61.22,614.36,31.34,610.11z"/>
<path class="st0" d="M-90.06,328.66c0,0,8.84-3.57,18.51-7.59c0,0,16.62-8.71,39.13-2.23c0,0,28.82,10.05,49.86,36.86
	c0,0,10.73,15.64,13.04,22.56c0,0-18.73-24.57-58.7-27.25c0,0-30.93-1.34-41.45-7.15C-69.65,343.85-84.12,337.23-90.06,328.66z"/>
<path class="st0" d="M83.94,413.32c0,0,14.94-39.09,34.82-68.58c0,0,24.62-35.52,11.99-62.32c0,0-2.21-9.38-17.57-24.35
	c0,0-15.99-15.19-12.62-31.05c0,0,0.42-3.57,2.95-5.81c0,0-5.89,2.01-16.62,2.68c0,0-21.04,20.77-38.5,60.76
	c0,0,4.84,32.39,18.09,72.15l1.28-31.94c0,0,2.3-19.21,11.77-27.48c0,0,12.62-9.83,20.2-11.17c0,0-21.88,8.71-25.88,25.69
	c0,0-3.58,5.58-1.26,30.6c0,0,0.21,30.16-1.68,29.49L83.94,413.32z"/>
<path class="st0" d="M98.04,215.18c0,0,11.78-8.49,27.14-10.5C125.18,204.68,115.5,217.19,98.04,215.18z"/>
<path class="st0" d="M24.71,325.31c0,0-8.52-43.89-1.89-85.11c0,0,7.68-28.37-0.32-49.14c0,0-6.31-18.09-23.14-25.47
	c0,0-11.15-5.14-17.25-10.72c0,0-19.99,5.14-24.41,37.97c0,0-5.89,5.58,16.41,53.39c0,0,0.21-20.33,6.73-29.04
	c0,0,7.36-9.61,18.94-7.15c0,0-10.73-0.9-14.73,5.36c0,0-6.94,7.6-7.15,16.76c0,0,0,18.09,1.47,24.79
	C-20.63,256.95-3.79,288.45,24.71,325.31z"/>
<path class="st0" d="M33.92,204.68c0,0,3.52-6.48,6.26-10.95c0,0,8.21-28.37,5.05-59.2c0,0-5.05-28.15-8.21-32.84
	c0,0-5.68-16.08-22.72-18.32c0,0-16.25-0.67-23.35-6.37c0,0-13.57,5.53-18.78,26.47c0,0-7.73,29.65-11.05,34.51
	c0,0-2.21,12.4-4.89,22.45c0,0-1.89,7.2,0,10.89c0,0,2.21-10.72,21.3-21.11c0,0-5.37-4.02-6.63-12.06c0,0-0.79-7.37,4.58-13.74
	c0,0-4.89,10.05-2.37,15.41c0,0,3.79,8.71,7.1,9.55c0,0,24.77-8.38,30.77-20.77c0,0,4.89-7.2,1.26-20.44c0,0-2.37-8.38-4.1-10.55
	c0,0,5.68,7.37,7.57,16.92c0,0,1.1,12.4-4.73,19.6c0,0-7.42,11.73-26.19,19.43c0,0,11.36,7.04,17.67,9.55c0,0,17.36,8.38,23.04,20.1
	C25.5,183.24,33.35,196.31,33.92,204.68z"/>
<path class="st0" d="M-47.14,74.45c0,0,5.26,12.96,1.05,38.42C-46.08,112.88-59.34,90.76-47.14,74.45z"/>
<path class="st0" d="M177.93-23.83c0,0,17.3,22.34,8.05,58.52c0,0-4.31-21.89-8.05-31.5C177.93,3.2,173.04-9.31,177.93-23.83z"/>
<path class="st0" d="M247.42,311.46c0,0,21.46-12.29,37.45-3.8C284.87,307.66,271.82,318.83,247.42,311.46z"/>
</svg>
