<?xml version="1.0" encoding="utf-8"?>
<!-- Generator: Adobe Illustrator 25.1.0, SVG Export Plug-In . SVG Version: 6.00 Build 0)  -->
<svg version="1.1" id="Layer_1" xmlns="http://www.w3.org/2000/svg" xmlns:xlink="http://www.w3.org/1999/xlink" x="0px" y="0px"
	 viewBox="0 0 350 612" style="enable-background:new 0 0 350 612;" xml:space="preserve">
<style type="text/css">
	.st0{fill:#F6E2CE;}
	.st1{fill:#414042;}
</style>
<rect x="-131.68" y="131.68" transform="matrix(-1.836970e-16 1 -1 -1.836970e-16 480.3154 131.6846)" class="st0" width="612" height="348.63"/>
<path class="st1" d="M-2.97,60.71c0,0,65.67,8.63,126.03,5.47c0,0,47.52,4.96,80.91,22.14c0,0,36.11,15.88,9.85,39.31
	c0,0,38.71-19.62-2.07-40.8c0,0-41.16-19.4-65.87-23.14c0,0,56.86-4.62,86.09-7.46c0,0,120.65-8.45,132.77,38.81
	c0,0,12.26-44.41-115.66-44.78c0,0,69.3-13.6,45.64-40.05c0,0,14.85,23.49-34.23,33.34c0,0-29.75,10.25-153,14.43
	c0,0-76.25,2.4-120.07-13.58L-2.97,60.71z"/>
<path class="st1" d="M348.63,554.69c0,0-28.25-9.78-44.53-11.67c0,0-34.41-4.54-95.21,0.18c0,0-43.62,3.34-45.68-17.77
	c0,0-7.54,18.75,51.06,20.46c0,0,39.91-2.92,59.5-1.08c0,0,33.93,0.45,52.21,12.21c0,0-55.52,5.46-86.38,9.87
	c0,0-63.2,7.99-83.69,4.31c0,0-89.18-0.75-177.87-57.67c0,0,44.42,40.88,136.8,57.5c0,0-104.66,5.09-80.62,36.97
	c0,0-8.82-16.36,17.66-23.51c0,0,8.72-8.52,89.96-9.21c0,0,55.33,5.48,106.02,0.69c0,0,5.2,0.36,98.98-9.78L348.63,554.69z"/>
<path class="st1" d="M372.17,457.94c0,0-34.76-5.57-67.09-6.4c0,0-25.2-3.53-42.43-11.32c0,0-18.73-7.37-3.9-15.55
	c0,0-21.34,6.28-0.3,15.86c0,0,21.3,8.91,34.36,11.19c0,0-30.51-0.14-46.22-0.03c0,0-64.7-0.83-69.54-19.53
	c0,0-8.08,16.77,60.19,21.26c0,0-37.47,2.91-25.75,13.96c0,0-7.12-9.6,19.42-11.74c0,0,16.24-2.96,82.17-0.39
	c0,0,40.78,1.66,63.63,9.34L372.17,457.94z"/>
<path class="st1" d="M-19.9,391.43c0,0,17.72,5.22,27.79,5.93c0,0,21.3,1.83,58.44-2.75c0,0,26.65-3.26,28.74,9.64
	c0,0,3.9-11.72-32.14-11.14c0,0-24.38,2.9-36.49,2.31c0,0-20.84,0.67-32.52-6.04c0,0,33.87-4.89,52.64-8.46
	c0,0,38.49-6.66,51.21-4.97c0,0,54.77-2.01,111.43,30.47c0,0-28.86-23.86-86.21-31.5c0,0,64.05-6.03,48.05-24.93
	c0,0,6.05,9.8-9.93,14.92c0,0-5.02,5.47-54.86,8.15c0,0-34.18-1.83-65.11,2.52c0,0-3.2-0.08-60.38,8.75L-19.9,391.43z"/>
<path class="st1" d="M0.08,521.66c0,0,15.16-39.69,37.88-45.63c0,0,9.03-4.84,32.71,5.53c0,0,21.91,7.95,33.45-7.89
	c0,0,5.75,6.37,5.84,13.26c0,0-0.12-8.57-4.57-14.21c0,0,7.86-3.73,8.81-39.15c0,0-0.64,26.34-10.62,37.26
	c0,0-8.26-10.15-29.63,2.21c0,0-2.12,1.38-4.57,0.32c0,0-14.36-5.31-24.74-7.89c0,0,9.37-10.78,10.09-26.37
	c0,0-0.51-13.43,0.11-19.74c0,0-0.52-16.47,8.96-16.42c0,0-5.35-2.26-8.78,6.74c0,0-2.66,8.79-1.98,28.84
	c0,0,0.73,16.69-19.11,28.21c0,0-15.75,1.74-29.45,19.58L0.08,521.66z"/>
<path class="st0" d="M76.96,475.77c0,0,14.21-12.26,25.2-3.58C102.16,472.19,92.99,483.09,76.96,475.77z"/>
</svg>
